{
  "accessors": [
    {
      "bufferView": 2,
      "componentType": 5126,
      "count": 65532,
      "max": [
        0.9925060272216797,
        0.6582760214805603,
        0.4786140024662018
      ],
      "min": [
        -0.999800980091095,
        -0.6582760214805603,
        -0.5561820268630981
      ],
      "type": "VEC3"
    },
    {
      "bufferView": 2,
      "byteOffset": 786384,
      "componentType": 5126,
      "count": 65532,
      "max": [
        0.9915769100189209,
        0.9999687671661377,
        0.9999474883079529
      ],
      "min": [
        -0.9999939799308777,
        -0.9999741315841675,
        -0.999980092048645
      ],
      "type": "VEC3"
    },
    {
      "bufferView": 3,
      "componentType": 5126,
      "count": 65532,
      "max": [
        0.9999949932098389,
        0.9999780058860779,
        0.9994720220565796,
        1.0
      ],
      "min": [
        -0.9965010285377502,
        -0.9993330240249634,
        -0.9999769926071167,
        -1.0
      ],
      "type": "VEC4"
    },
    {
      "bufferView": 1,
      "componentType": 5126,
      "count": 65532,
      "max": [
        0.9924060106277466,
        0.9960899949073792
      ],
      "min": [
        0.0078119998797774315,
        0.006043999921530485
      ],
      "type": "VEC2"
    },
    {
      "bufferView": 0,
      "componentType": 5125,
      "count": 352680,
      "type": "SCALAR"
    },
    {
      "bufferView": 2,
      "byteOffset": 1572768,
      "componentType": 5126,
      "count": 43296,
      "max": [
        1.0,
        0.5854690074920654,
        0.5561820268630981
      ],
      "min": [
        -1.0,
        -0.6582760214805603,
        -0.5526530146598816
      ],
      "type": "VEC3"
    },
    {
      "bufferView": 2,
      "byteOffset": 2092320,
      "componentType": 5126,
      "count": 43296,
      "max": [
        0.9767376184463501,
        0.9993114471435547,
        0.9999904632568359
      ],
      "min": [
        -0.9989259839057922,
        -0.9999788999557495,
        -0.9999083280563354
      ],
      "type": "VEC3"
    },
    {
      "bufferView": 3,
      "byteOffset": 1048512,
      "componentType": 5126,
      "count": 43296,
      "max": [
        0.9999279975891113,
        0.999987006187439,
        0.9999960064888,
        1.0
      ],
      "min": [
        -0.9948239922523499,
        -0.9987779855728149,
        -0.9999780058860779,
        -1.0
      ],
      "type": "VEC4"
    },
    {
      "bufferView": 1,
      "byteOffset": 524256,
      "componentType": 5126,
      "count": 43296,
      "max": [
        0.9924060106277466,
        0.9984920024871826
      ],
      "min": [
        0.0008370000286959112,
        0.0038350000977516174
      ],
      "type": "VEC2"
    },
    {
      "bufferView": 0,
      "byteOffset": 1410720,
      "componentType": 5125,
      "count": 212178,
      "type": "SCALAR"
    }
  ],
  "asset": {
    "extras": {
      "author": "default user (https://sketchfab.com/milanautica)",
      "license": "CC-BY-4.0 (http://creativecommons.org/licenses/by/4.0/)",
      "source": "https://sketchfab.com/3d-models/first-photogrammetry-with-buddha-1298f5322801468c9e864005fe73b8a0",
      "title": "First Photogrammetry with Buddha"
    },
    "generator": "Sketchfab-16.15.0",
    "version": "2.0"
  },
  "bufferViews": [
    {
      "buffer": 0,
      "byteLength": 2259432,
      "name": "floatBufferViews",
      "target": 34963
    },
    {
      "buffer": 0,
      "byteLength": 870624,
      "byteOffset": 2259432,
      "byteStride": 8,
      "name": "floatBufferViews",
      "target": 34962
    },
    {
      "buffer": 0,
      "byteLength": 2611872,
      "byteOffset": 3130056,
      "byteStride": 12,
      "name": "floatBufferViews",
      "target": 34962
    },
    {
      "buffer": 0,
      "byteLength": 1741248,
      "byteOffset": 5741928,
      "byteStride": 16,
      "name": "floatBufferViews",
      "target": 34962
    }
  ],
  "buffers": [
    {
      "byteLength": 7483176,
      "uri": "scene.bin"
    }
  ],
  "extensionsRequired": [
    "KHR_materials_pbrSpecularGlossiness"
  ],
  "extensionsUsed": [
    "KHR_materials_pbrSpecularGlossiness"
  ],
  "images": [
    {
      "uri": "textures/buddha_diffuse.jpeg"
    },
    {
      "uri": "textures/buddha_specularGlossiness.png"
    },
    {
      "uri": "textures/buddha_normal.png"
    },
    {
      "uri": "textures/buddha_occlusion.png"
    }
  ],
  "materials": [
    {
      "doubleSided": true,
      "extensions": {
        "KHR_materials_pbrSpecularGlossiness": {
          "diffuseFactor": [
            1.0,
            1.0,
            1.0,
            1.0
          ],
          "diffuseTexture": {
            "index": 0
          },
          "glossinessFactor": 1.0,
          "specularFactor": [
            1.0,
            1.0,
            1.0
          ],
          "specularGlossinessTexture": {
            "index": 1
          }
        }
      },
      "name": "buddha",
      "normalTexture": {
        "index": 2
      },
      "occlusionTexture": {
        "index": 3
      }
    }
  ],
  "meshes": [
    {
      "name": "defaultMaterial",
      "primitives": [
        {
          "attributes": {
            "NORMAL": 1,
            "POSITION": 0,
            "TANGENT": 2,
            "TEXCOORD_0": 3
          },
          "indices": 4,
          "material": 0,
          "mode": 4
        }
      ]
    },
    {
      "name": "defaultMaterial",
      "primitives": [
        {
          "attributes": {
            "NORMAL": 6,
            "POSITION": 5,
            "TANGENT": 7,
            "TEXCOORD_0": 8
          },
          "indices": 9,
          "material": 0,
          "mode": 4
        }
      ]
    }
  ],
  "nodes": [
    {
      "children": [
        1
      ],
      "matrix": [
        2.220446049250313e-16,
        -1.0,
        -3.3306690738754696e-16,
        0.0,
        4.978996314197971e-17,
        -3.3306690738754696e-16,
        1.0,
        0.0,
        -1.0,
        -2.220446049250313e-16,
        4.978996314197966e-17,
        0.0,
        0.0,
        0.0,
        0.0,
        1.0
      ],
      "name": "Sketchfab_model"
    },
    {
      "children": [
        2
      ],
      "matrix": [
        1.0,
        0.0,
        0.0,
        0.0,
        0.0,
        -4.371139006309477e-08,
        0.999999999999999,
        0.0,
        0.0,
        -0.999999999999999,
        -4.371139006309477e-08,
        0.0,
        0.0,
        0.0,
        0.0,
        1.0
      ],
      "name": "Collada visual scene group"
    },
    {
      "children": [
        3,
        4
      ],
      "name": "defaultobject"
    },
    {
      "mesh": 0,
      "name": "defaultMaterial"
    },
    {
      "mesh": 1,
      "name": "defaultMaterial"
    }
  ],
  "samplers": [
    {
      "magFilter": 9729,
      "minFilter": 9987,
      "wrapS": 10497,
      "wrapT": 10497
    }
  ],
  "scene": 0,
  "scenes": [
    {
      "name": "Sketchfab_Scene",
      "nodes": [
        0
      ]
    }
  ],
  "textures": [
    {
      "sampler": 0,
      "source": 0
    },
    {
      "sampler": 0,
      "source": 1
    },
    {
      "sampler": 0,
      "source": 2
    },
    {
      "sampler": 0,
      "source": 3
    }
  ]
}
